<svg width="95" height="92" viewBox="0 0 95 92" fill="none" xmlns="http://www.w3.org/2000/svg">
<path d="M0.30957 0.0419922H94.711V91.7462H0.30957V0.0419922Z"/>
<path d="M71.1106 11.505H23.9099C20.7803 11.505 17.7789 12.7127 15.5659 14.8625C13.353 17.0122 12.1097 19.9279 12.1097 22.9681V68.8202C12.1097 71.8604 13.353 74.776 15.5659 76.9258C17.7789 79.0755 20.7803 80.2832 23.9099 80.2832H71.1106C74.2402 80.2832 77.2417 79.0755 79.4546 76.9258C81.6676 74.776 82.9108 71.8604 82.9108 68.8202V22.9681C82.9108 19.9279 81.6676 17.0122 79.4546 14.8625C77.2417 12.7127 74.2402 11.505 71.1106 11.505ZM59.3105 49.7151H51.4437V57.3571C51.4437 58.3705 51.0293 59.3424 50.2916 60.059C49.554 60.7756 48.5535 61.1781 47.5103 61.1781C46.4671 61.1781 45.4666 60.7756 44.729 60.059C43.9913 59.3424 43.5769 58.3705 43.5769 57.3571V49.7151H35.7101C34.6669 49.7151 33.6664 49.3125 32.9288 48.596C32.1911 47.8794 31.7767 46.9075 31.7767 45.8941C31.7767 44.8807 32.1911 43.9088 32.9288 43.1922C33.6664 42.4757 34.6669 42.0731 35.7101 42.0731H43.5769V34.4311C43.5769 33.4177 43.9913 32.4458 44.729 31.7292C45.4666 31.0126 46.4671 30.6101 47.5103 30.6101C48.5535 30.6101 49.554 31.0126 50.2916 31.7292C51.0293 32.4458 51.4437 33.4177 51.4437 34.4311V42.0731H59.3105C60.3537 42.0731 61.3541 42.4757 62.0918 43.1922C62.8294 43.9088 63.2438 44.8807 63.2438 45.8941C63.2438 46.9075 62.8294 47.8794 62.0918 48.596C61.3541 49.3125 60.3537 49.7151 59.3105 49.7151Z" fill="white"/>
</svg>
