<svg width="95" height="92" viewBox="0 0 95 92" fill="none" xmlns="http://www.w3.org/2000/svg">
<path d="M70.8011 11.463H23.6004C20.4708 11.463 17.4693 12.6707 15.2564 14.8205C13.0434 16.9702 11.8002 19.8859 11.8002 22.9261V68.7782C11.8002 71.8184 13.0434 74.734 15.2564 76.8838C17.4693 79.0335 20.4708 80.2412 23.6004 80.2412H70.8011C73.9307 80.2412 76.9321 79.0335 79.1451 76.8838C81.358 74.734 82.6012 71.8184 82.6012 68.7782V22.9261C82.6012 19.8859 81.358 16.9702 79.1451 14.8205C76.9321 12.6707 73.9307 11.463 70.8011 11.463ZM59.0009 49.6731H51.1341V57.3151C51.1341 58.3285 50.7197 59.3004 49.982 60.017C49.2444 60.7336 48.2439 61.1362 47.2007 61.1362C46.1575 61.1362 45.157 60.7336 44.4194 60.017C43.6817 59.3004 43.2673 58.3285 43.2673 57.3151V49.6731H35.4005C34.3573 49.6731 33.3569 49.2706 32.6192 48.554C31.8816 47.8374 31.4671 46.8655 31.4671 45.8521C31.4671 44.8387 31.8816 43.8668 32.6192 43.1503C33.3569 42.4337 34.3573 42.0311 35.4005 42.0311H43.2673V34.3891C43.2673 33.3757 43.6817 32.4038 44.4194 31.6872C45.157 30.9706 46.1575 30.5681 47.2007 30.5681C48.2439 30.5681 49.2444 30.9706 49.982 31.6872C50.7197 32.4038 51.1341 33.3757 51.1341 34.3891V42.0311H59.0009C60.0441 42.0311 61.0446 42.4337 61.7822 43.1503C62.5199 43.8668 62.9343 44.8387 62.9343 45.8521C62.9343 46.8655 62.5199 47.8374 61.7822 48.554C61.0446 49.2706 60.0441 49.6731 59.0009 49.6731Z" fill="black"/>
</svg>
