<svg width="55" height="55" viewBox="0 0 55 55" fill="none" xmlns="http://www.w3.org/2000/svg">
<path fill-rule="evenodd" clip-rule="evenodd" d="M10.3006 0.45752C7.69939 0.45752 5.2047 1.49085 3.36536 3.3302C1.52601 5.16954 0.492676 7.66423 0.492676 10.2655V44.5933C0.492676 47.1945 1.52601 49.6892 3.36536 51.5285C5.2047 53.3679 7.69939 54.4012 10.3006 54.4012H44.6284C47.2296 54.4012 49.7243 53.3679 51.5637 51.5285C53.403 49.6892 54.4363 47.1945 54.4363 44.5933V10.2655C54.4363 7.66423 53.403 5.16954 51.5637 3.3302C49.7243 1.49085 47.2296 0.45752 44.6284 0.45752H10.3006ZM29.9165 10.2655C29.9165 9.61515 29.6582 8.99148 29.1983 8.53164C28.7385 8.07181 28.1148 7.81347 27.4645 7.81347C26.8142 7.81347 26.1905 8.07181 25.7307 8.53164C25.2709 8.99148 25.0125 9.61515 25.0125 10.2655V24.9774H10.3006C9.65031 24.9774 9.02664 25.2357 8.5668 25.6955C8.10696 26.1554 7.84863 26.779 7.84863 27.4294C7.84863 28.0797 8.10696 28.7033 8.5668 29.1632C9.02664 29.623 9.65031 29.8813 10.3006 29.8813H25.0125V44.5933C25.0125 45.2436 25.2709 45.8672 25.7307 46.3271C26.1905 46.7869 26.8142 47.0452 27.4645 47.0452C28.1148 47.0452 28.7385 46.7869 29.1983 46.3271C29.6582 45.8672 29.9165 45.2436 29.9165 44.5933V29.8813H44.6284C45.2787 29.8813 45.9024 29.623 46.3622 29.1632C46.8221 28.7033 47.0804 28.0797 47.0804 27.4294C47.0804 26.779 46.8221 26.1554 46.3622 25.6955C45.9024 25.2357 45.2787 24.9774 44.6284 24.9774H29.9165V10.2655Z" fill="white"/>
</svg>
