<!DOCTYPE svg PUBLIC "-//W3C//DTD SVG 1.1//EN" "http://www.w3.org/Graphics/SVG/1.1/DTD/svg11.dtd">
<!-- Uploaded to: SVG Repo, www.svgrepo.com, Transformed by: SVG Repo Mixer Tools -->
<svg fill="#000000" width="800px" height="800px" viewBox="-2.4 -2.4 28.80 28.80" id="camera-left" data-name="Line Color" xmlns="http://www.w3.org/2000/svg" class="icon line-color" transform="rotate(0)matrix(1, 0, 0, 1, 0, 0)">
<g id="SVGRepo_bgCarrier" stroke-width="0"/>
<g id="SVGRepo_tracerCarrier" stroke-linecap="round" stroke-linejoin="round"/>
<g id="SVGRepo_iconCarrier">
<path id="secondary" d="M6.5,5h3L10,7H6ZM10,13a2,2,0,1,0,2-2A2,2,0,0,0,10,13Z" style="fill: none; stroke: #008000; stroke-linecap: round; stroke-linejoin: round; stroke-width:0.9600000000000002;"/>
<path id="primary" d="M4,7A1,1,0,0,0,3,8V18a1,1,0,0,0,1,1H20a1,1,0,0,0,1-1V6a1,1,0,0,0-1-1H14.62a1,1,0,0,0-.9.55L13,7Z" style="fill: none; stroke: #000000; stroke-linecap: round; stroke-linejoin: round; stroke-width:0.9600000000000002;"/>
</g>
</svg>