<svg width="60" height="60" viewBox="0 0 60 60" fill="none" xmlns="http://www.w3.org/2000/svg">
<path d="M40.7512 27.2021H40.7752M29.9597 27.2021H29.9839M19.1683 27.202H19.1925M20.5317 48.715H19.1831C8.39437 48.715 3 46.0259 3 32.5803V19.1347C3 8.37823 8.39437 3 19.1831 3H40.7606C51.5493 3 56.9437 8.37823 56.9437 19.1347V32.5803C56.9437 43.3367 51.5493 48.715 40.7606 48.715H39.412C38.5758 48.715 37.7667 49.1183 37.2542 49.7906L33.2085 55.1689C31.4283 57.5353 28.5154 57.5353 26.7352 55.1689L22.6894 49.7906C22.2579 49.199 21.2599 48.715 20.5317 48.715Z" stroke="#292D32" stroke-width="5.39437" stroke-linecap="round" stroke-linejoin="round"/>
</svg>
