<svg width="66" height="73" viewBox="0 0 66 73" fill="none" xmlns="http://www.w3.org/2000/svg">
<path d="M36.7199 1.66367C34.6404 -0.37617 31.3874 -0.37617 29.3079 1.66367L3.18025 27.2929C1.56367 28.8787 0.647705 31.0851 0.647705 33.3932V64.5627C0.647705 69.199 4.2704 72.9577 8.73925 72.9577H16.8308C21.2997 72.9577 24.9224 69.199 24.9224 64.5627V50.5709C24.9224 49.0256 26.1299 47.7727 27.6195 47.7727H38.4083C39.8979 47.7727 41.1055 49.0256 41.1055 50.5709V64.5627C41.1055 69.199 44.7283 72.9577 49.197 72.9577H57.2886C61.7572 72.9577 65.3801 69.199 65.3801 64.5627V33.3932C65.3801 31.0851 64.4641 28.8787 62.8475 27.2929L36.7199 1.66367Z" fill="#0A670A"/>
</svg>
