<svg width="74" height="74" viewBox="0 0 74 74" fill="none" xmlns="http://www.w3.org/2000/svg">
<path d="M62.502 11.1216C56.5561 5.12798 48.7085 1.39973 40.3121 0.579635C31.9157 -0.240462 23.4967 1.89899 16.5065 6.62913C9.51636 11.3593 4.39308 18.3837 2.01996 26.4914C-0.353162 34.5991 0.172588 43.2819 3.50657 51.043C3.85406 51.7643 3.96807 52.5763 3.83271 53.3657L0.643771 68.7172C0.52091 69.3058 0.545999 69.9158 0.716782 70.4922C0.887564 71.0687 1.19869 71.5936 1.6222 72.0198C1.96937 72.365 2.38274 72.6362 2.83738 72.8171C3.29202 72.998 3.77852 73.0848 4.26757 73.0723H4.99233L20.5022 69.9512C21.2905 69.8563 22.0898 69.9688 22.8214 70.2778C30.5709 73.6168 39.2408 74.1433 47.3363 71.7666C55.4319 69.39 62.4459 64.259 67.1689 57.2584C71.892 50.2578 74.0283 41.8262 73.2094 33.4173C72.3905 25.0083 68.6679 17.149 62.6832 11.1942L62.502 11.1216ZM22.3866 40.4094C21.6698 40.4094 20.9692 40.1965 20.3733 39.7977C19.7773 39.399 19.3129 38.8322 19.0386 38.169C18.7643 37.5059 18.6926 36.7761 18.8324 36.0721C18.9722 35.3681 19.3173 34.7215 19.8241 34.2139C20.3309 33.7064 20.9766 33.3607 21.6796 33.2207C22.3825 33.0807 23.1112 33.1525 23.7733 33.4272C24.4355 33.7019 25.0014 34.1671 25.3996 34.7639C25.7978 35.3607 26.0103 36.0624 26.0103 36.7802C26.0103 37.7427 25.6286 38.6658 24.949 39.3464C24.2694 40.027 23.3476 40.4094 22.3866 40.4094ZM36.8817 40.4094C36.165 40.4094 35.4644 40.1965 34.8685 39.7977C34.2725 39.399 33.8081 38.8322 33.5338 38.169C33.2595 37.5059 33.1877 36.7761 33.3276 36.0721C33.4674 35.3681 33.8125 34.7215 34.3193 34.2139C34.8261 33.7064 35.4718 33.3607 36.1748 33.2207C36.8777 33.0807 37.6063 33.1525 38.2685 33.4272C38.9307 33.7019 39.4966 34.1671 39.8948 34.7639C40.293 35.3607 40.5055 36.0624 40.5055 36.7802C40.5055 37.7427 40.1237 38.6658 39.4441 39.3464C38.7646 40.027 37.8428 40.4094 36.8817 40.4094ZM51.3769 40.4094C50.6602 40.4094 49.9596 40.1965 49.3636 39.7977C48.7677 39.399 48.3032 38.8322 48.029 38.169C47.7547 37.5059 47.6829 36.7761 47.8228 36.0721C47.9626 35.3681 48.3077 34.7215 48.8145 34.2139C49.3213 33.7064 49.967 33.3607 50.67 33.2207C51.3729 33.0807 52.1015 33.1525 52.7637 33.4272C53.4258 33.7019 53.9918 34.1671 54.39 34.7639C54.7882 35.3607 55.0007 36.0624 55.0007 36.7802C55.0007 37.7427 54.6189 38.6658 53.9393 39.3464C53.2597 40.027 52.338 40.4094 51.3769 40.4094Z" fill="#0A670A"/>
</svg>
