<svg width="63" height="71" viewBox="0 0 63 71" fill="none" xmlns="http://www.w3.org/2000/svg">
<path d="M31.3272 70.9578C35.8454 70.9578 39.6227 68.0335 41.0391 63.9451H21.6152C23.0317 68.0335 26.8089 70.9578 31.3272 70.9578ZM55.452 44.9618V28.8818C55.452 17.6019 47.9216 8.09969 37.7203 5.24203C36.7105 2.65435 34.2428 0.831055 31.3272 0.831055C28.4115 0.831055 25.9439 2.65435 24.9341 5.24203C14.7328 8.1032 7.20237 17.6019 7.20237 28.8818V44.9618L1.31937 50.9471C0.671442 51.6028 0.30957 52.4934 0.30957 53.4261V56.9325C0.30957 58.8715 1.85011 60.4388 3.75597 60.4388H58.8984C60.8042 60.4388 62.3448 58.8715 62.3448 56.9325V53.4261C62.3448 52.4934 61.9829 51.6028 61.335 50.9471L55.452 44.9618Z" fill="#9E9898"/>
</svg>
