<svg width="100" height="92" viewBox="0 0 100 92" fill="none" xmlns="http://www.w3.org/2000/svg">
<path d="M0.112305 0.0419922H99.9081V91.7462H0.112305V0.0419922Z"/>
<path d="M50.0102 42.0731C53.2998 42.0731 56.5156 41.1767 59.2508 39.4973C61.986 37.8178 64.1179 35.4308 65.3767 32.638C66.6356 29.8452 66.965 26.7721 66.3232 23.8073C65.6815 20.8425 64.0974 18.1191 61.7712 15.9816C59.4451 13.8441 56.4815 12.3884 53.2551 11.7987C50.0286 11.209 46.6844 11.5116 43.6452 12.6685C40.6059 13.8253 38.0083 15.7843 36.1807 18.2977C34.3531 20.8112 33.3776 23.7662 33.3776 26.7891C33.3776 30.8426 35.1299 34.7302 38.2491 37.5965C41.3684 40.4628 45.5989 42.0731 50.0102 42.0731Z" fill="#9E9898"/>
<path d="M74.9591 80.2832C76.062 80.2832 77.1196 79.8806 77.8994 79.164C78.6792 78.4475 79.1173 77.4756 79.1173 76.4622C79.1173 69.3684 76.0507 62.5652 70.592 57.5492C65.1334 52.5331 57.7299 49.7151 50.0102 49.7151C42.2905 49.7151 34.887 52.5331 29.4284 57.5492C23.9697 62.5652 20.9031 69.3684 20.9031 76.4622C20.9031 77.4756 21.3412 78.4475 22.121 79.164C22.9008 79.8806 23.9584 80.2832 25.0612 80.2832H74.9591Z" fill="#9E9898"/>
</svg>
