<svg width="71" height="73" viewBox="0 0 71 73" fill="none" xmlns="http://www.w3.org/2000/svg">
<path d="M69.9546 63.0948L56.298 48.9154C55.6816 48.2754 54.8461 47.9198 53.9694 47.9198H51.7367C55.5172 42.8995 57.7637 36.5849 57.7637 29.7156C57.7637 13.3745 45.0112 0.133789 29.2726 0.133789C13.534 0.133789 0.781494 13.3745 0.781494 29.7156C0.781494 46.0568 13.534 59.2975 29.2726 59.2975C35.8885 59.2975 41.9703 56.9651 46.8055 53.0398V55.358C46.8055 56.2682 47.148 57.1357 47.7644 57.7757L61.4209 71.9551C62.7085 73.292 64.7905 73.292 66.0644 71.9551L69.9408 67.9303C71.2284 66.5934 71.2284 64.4316 69.9546 63.0948ZM29.2726 47.9198C19.5883 47.9198 11.7396 39.7848 11.7396 29.7156C11.7396 19.6606 19.5746 11.5114 29.2726 11.5114C38.9568 11.5114 46.8055 19.6464 46.8055 29.7156C46.8055 39.7706 38.9705 47.9198 29.2726 47.9198Z" fill="#9E9898"/>
</svg>
