<svg width="73" height="76" viewBox="0 0 73 76" fill="none" xmlns="http://www.w3.org/2000/svg">
<path d="M71.9646 46.8494L65.431 43.1038C66.0905 39.5714 66.0905 35.9476 65.431 32.4152L71.9646 28.6696C72.7161 28.2433 73.0535 27.3602 72.8081 26.538C71.1057 21.1175 68.207 16.2147 64.4187 12.1342C63.8359 11.5099 62.885 11.3577 62.1488 11.784L55.6152 15.5296C52.8698 13.1848 49.7104 11.3729 46.2902 10.1853V2.7093C46.2902 1.85665 45.6921 1.11057 44.8485 0.927861C39.2198 -0.320669 33.453 -0.259765 28.1004 0.927861C27.2568 1.11057 26.6587 1.85665 26.6587 2.7093V10.2005C23.2538 11.4033 20.0944 13.2152 17.3337 15.5448L10.8154 11.7992C10.0639 11.3729 9.12832 11.5099 8.54551 12.1494C4.75724 16.2147 1.85852 21.1175 0.156094 26.5532C-0.104638 27.3754 0.248116 28.2585 0.999636 28.6848L7.53326 32.4304C6.87376 35.9628 6.87376 39.5866 7.53326 43.119L0.999636 46.8646C0.248116 47.291 -0.0893006 48.1741 0.156094 48.9963C1.85852 54.4167 4.75724 59.3195 8.54551 63.4C9.12832 64.0243 10.0792 64.1766 10.8154 63.7502L17.349 60.0047C20.0944 62.3495 23.2538 64.1613 26.674 65.349V72.8401C26.674 73.6928 27.2722 74.4389 28.1157 74.6216C33.7444 75.8701 39.5112 75.8092 44.8639 74.6216C45.7074 74.4389 46.3055 73.6928 46.3055 72.8401V65.349C49.7104 64.1461 52.8698 62.3342 55.6305 60.0047L62.1642 63.7502C62.9157 64.1766 63.8512 64.0395 64.434 63.4C68.2223 59.3347 71.121 54.4319 72.8235 48.9963C73.0535 48.1588 72.7161 47.2757 71.9646 46.8494ZM36.4744 49.9403C29.7108 49.9403 24.2047 44.4742 24.2047 37.7595C24.2047 31.0448 29.7108 25.5787 36.4744 25.5787C43.2381 25.5787 48.7442 31.0448 48.7442 37.7595C48.7442 44.4742 43.2381 49.9403 36.4744 49.9403Z" fill="#292D32"/>
</svg>
