<svg width="58" height="55" viewBox="0 0 58 55" fill="none" xmlns="http://www.w3.org/2000/svg">
<path d="M48.4149 0.479374L6.87373 8.00984C5.23635 8.30975 3.73148 9.10744 2.56427 10.2941C1.39707 11.4808 0.624343 12.9988 0.351448 14.641C0.0785529 16.2833 0.318769 17.9699 1.03935 19.471C1.75992 20.972 2.92579 22.2144 4.378 23.0288L18.2461 30.7409C18.5737 30.9331 18.8598 31.1887 19.0876 31.4927C19.3153 31.7966 19.4803 32.1429 19.5728 32.5113L23.0814 47.9868C23.3815 49.3017 24.0054 50.5207 24.8964 51.5333C25.7874 52.5459 26.9172 53.3198 28.1832 53.7847C29.4491 54.2496 30.8111 54.3908 32.1453 54.1955C33.4794 54.0001 34.7435 53.4744 35.8227 52.6661C36.8257 51.8987 37.6443 50.9166 38.2186 49.7917L57.1086 12.0354C57.7762 10.6929 58.0576 9.1911 57.9215 7.69766C57.7853 6.20422 57.237 4.77784 56.3376 3.57768C55.4382 2.37751 54.2231 1.45076 52.828 0.90081C51.4328 0.350865 49.9124 0.19936 48.4365 0.4632L48.4149 0.479374ZM52.2701 9.62645L33.38 47.3828C33.1261 47.8707 32.729 48.2693 32.2421 48.525C31.7551 48.7808 31.2016 48.8815 30.6557 48.8137C30.1098 48.7459 29.5976 48.5128 29.1878 48.1456C28.7781 47.7785 28.4903 47.2948 28.3631 46.7596L24.833 31.3002C24.7837 31.0954 24.7225 30.8936 24.6497 30.6959L39.5201 19.5521C40.0925 19.1231 40.471 18.4843 40.5723 17.7761C40.6736 17.0679 40.4895 16.3483 40.0604 15.7757C39.6313 15.2031 38.9924 14.8244 38.2842 14.7228C37.576 14.6212 36.8566 14.8051 36.2842 15.2341L21.4138 26.3779C21.2445 26.2525 21.068 26.1371 20.8852 26.0323L7.03866 18.3041C6.56064 18.0317 6.17726 17.6197 5.93992 17.1234C5.70259 16.627 5.62265 16.07 5.71082 15.527C5.799 14.984 6.05107 14.481 6.43324 14.0854C6.8154 13.6899 7.3094 13.4207 7.84899 13.3139L49.3901 5.78345C49.8794 5.69969 50.3824 5.75262 50.8436 5.9364C51.3049 6.12017 51.7065 6.42767 52.0043 6.82503C52.3021 7.22238 52.4844 7.69418 52.5313 8.18846C52.5782 8.68274 52.4878 9.18034 52.2701 9.62645Z" fill="black"/>
</svg>
